<?xml version="1.0" encoding="UTF-8" standalone="no"?>
<!DOCTYPE svg PUBLIC "-//W3C//DTD SVG 1.1//EN" "http://www.w3.org/Graphics/SVG/1.1/DTD/svg11.dtd">
<svg width="100%" height="100%" viewBox="500 800 5230 5092" version="1.1" xmlns="http://www.w3.org/2000/svg" xmlns:xlink="http://www.w3.org/1999/xlink" xml:space="preserve" xmlns:serif="http://www.serif.com/" style="fill-rule:evenodd;clip-rule:evenodd;stroke-linejoin:round;stroke-miterlimit:1.41421;">
    <g transform="matrix(7.0742,0,0,7.0742,614.837,855.504)">
        <g transform="matrix(1,0,0,1,0,-484.102)">
            <path d="M186.761,639.191L237.974,639.191L237.974,704.214L186.761,704.214L186.761,639.191ZM338.1,638.04L392.19,638.04L392.19,704.79L338.1,704.79L338.1,638.04Z" style="fill:white;"/>
        </g>
        <g transform="matrix(1,0,0,1,624.485,552.755)">
            <path d="M0,52.272L0,99.381C0,110.326 3.344,112.756 10.031,112.756C16.412,112.756 19.756,110.326 19.756,99.381L19.756,76.587C19.756,46.197 -32.218,16.41 -32.218,-18.846L-32.218,-49.848C-32.218,-78.115 -10.031,-86.32 9.725,-86.32C29.782,-86.32 51.969,-78.115 51.969,-49.848L51.969,-4.256L19.756,-4.256L19.756,-47.114C19.756,-58.052 16.412,-60.488 10.031,-60.488C3.344,-60.488 0,-58.052 0,-47.114L0,-20.367C0,-4.864 51.969,41.939 51.969,63.825L51.969,102.118C51.969,130.383 29.782,138.592 9.725,138.592C-10.031,138.592 -32.218,130.383 -32.218,102.118L-32.218,52.272L0,52.272Z" style="fill:rgb(227,5,25);fill-rule:nonzero;"/>
        </g>
        <g transform="matrix(1,0,0,1,81.9934,470.689)">
            <path d="M0,216.4L-29.481,216.4L-41.029,112.151C-43.464,89.964 -46.502,58.355 -48.63,39.818L-49.846,39.818C-49.539,52.886 -48.63,68.994 -48.63,82.062L-48.63,216.4L-76.896,216.4L-76.896,0L-29.18,0L-18.843,89.357C-17.02,102.732 -13.982,129.477 -13.676,156.829L-12.161,156.829C-11.246,134.337 -10.94,106.985 -9.117,89.659L-0.307,0L47.414,0L47.414,216.4L19.148,216.4L19.148,116.711C19.148,91.18 19.449,67.17 20.364,39.818L19.148,39.818C17.321,55.924 12.461,111.544 11.246,123.091L0,216.4Z" style="fill:rgb(0,156,219);fill-rule:nonzero;"/>
        </g>
        <g transform="matrix(1,0,0,1,261.403,652.141)">
            <path d="M0,-146.5L0,-0.005C0,10.939 3.345,13.37 10.032,13.37C16.414,13.37 19.758,10.939 19.758,-0.005L19.758,-146.5C19.758,-157.438 16.414,-159.874 10.032,-159.874C3.345,-159.874 0,-157.438 0,-146.5M-32.218,2.731L-32.218,-149.234C-32.218,-177.501 -10.03,-185.706 9.726,-185.706C29.784,-185.706 51.971,-177.501 51.971,-149.234L51.971,2.731C51.971,30.997 29.784,39.206 9.726,39.206C-10.03,39.206 -32.218,30.997 -32.218,2.731" style="fill:rgb(0,146,64);"/>
        </g>
        <g transform="matrix(1,0,0,1,442.944,661.253)">
            <path d="M0,-164.728L0,0.001L7.597,0.001C15.805,0.001 19.756,-2.123 19.756,-16.106L19.756,-148.622C19.756,-162.599 15.805,-164.728 7.597,-164.728L0,-164.728ZM-32.218,25.836L-32.218,-190.564L6.687,-190.564C38.599,-190.564 51.969,-179.62 51.969,-141.628L51.969,-13.37C51.969,7.295 38.599,25.836 13.677,25.836L-32.218,25.836Z" style="fill:rgb(252,191,0);"/>
        </g>
        <g transform="matrix(1,0,0,1,0,-419.267)">
            <path d="M668.313,850.251L604.149,850.251L604.149,419.267L668.313,419.267L668.313,850.251ZM99.939,419.266L164.103,419.266L164.103,784.876C164.103,841.771 117.496,858.729 79.96,858.729C33.964,858.729 -1.753,825.433 0.067,778.217L0.067,686.214L64.222,686.214L64.222,776.407C64.222,804.854 73.911,807.274 82.39,807.274C90.859,807.274 99.939,804.854 99.939,776.407L99.939,419.266ZM480.359,850.251L416.203,850.251L416.203,419.266L480.359,419.266L480.359,613.57L482.178,613.57L531.204,419.266L593.559,419.266L544.523,616L594.769,850.251L528.784,850.251L482.178,631.738L480.359,631.738L480.359,850.251Z" style="fill:white;"/>
        </g>
        <g transform="matrix(1,0,0,1,236.428,413.627)">
            <path d="M0,-254.15L-45.8,-254.15L-45.799,-195.865L0,-195.865L0,-254.15ZM97.502,-262.569L161.658,-262.569L161.666,-99.9C161.666,-40.076 113.17,8.419 53.347,8.419C-6.326,8.419 -54.738,-39.832 -54.982,-99.447L-54.982,-262.569L9.183,-262.569L9.183,-99.447C9.448,-75.281 29.107,-55.773 53.337,-55.773C77.563,-55.773 97.231,-75.284 97.502,-99.447L97.502,-262.569ZM152.278,-254.15L106.479,-254.15L106.479,-195.865L152.279,-195.865L152.278,-254.15Z" style="fill:rgb(227,5,25);"/>
        </g>
        <g transform="matrix(1,0,0,1,339.838,257.553)">
            <path d="M0.212,-20.131C3.258,-19.775 4.233,-15.924 1.078,-13.482C-27.205,8.194 -69.388,8.653 -98.318,-13.991C-98.318,-13.991 -100.285,-15.703 -99.787,-17.652C-99.174,-20.051 -96.543,-20.972 -93.632,-18.718C-67.661,1.177 -28.55,1.522 -2.049,-19.426C-2.049,-19.426 -1.367,-20.15 0.212,-20.131Z" style="fill:white;fill-rule:nonzero;"/>
        </g>
        <g transform="matrix(1.43964,0,0,1.43964,-1217.31,-165.763)">
            <path d="M1037.3,278.587C1037.57,278.616 1037.82,278.689 1038.06,278.807L1060.55,290.919C1061.31,291.366 1061.28,291.565 1061.4,291.881C1061.75,292.752 1061.51,293.689 1060.54,294.251L1038.05,306.219C1036.85,306.804 1036.63,306.458 1036.13,306.139C1035.45,305.697 1035.1,305.013 1035.34,304.035L1038.41,293.215C1038.41,293.215 1035.3,280.802 1035.3,280.802C1035.24,280.399 1035.27,280.327 1035.3,280.144C1035.49,279.037 1037.08,278.578 1037.3,278.587ZM1038.54,241.783L1035.21,232.48C1035.01,231.662 1035.14,231.623 1035.26,231.296C1035.61,230.392 1036.94,230.076 1037.16,230.084C1037.43,230.112 1037.68,230.185 1037.92,230.305L1059.24,241.783L1077.84,241.783C1077.92,241.787 1077.99,241.791 1078.07,241.794C1080.34,242.142 1081.16,246.204 1077.84,246.373L1059.23,246.373L1037.91,257.716C1034.88,259.199 1034.88,256.616 1035.24,255.427L1038.39,246.373L1016.18,246.373C1013.82,246.253 1012.75,241.957 1016.18,241.783L1038.54,241.783ZM1037.86,184.887L1035.31,175.87C1035.24,175.44 1035.26,175.313 1035.32,175.074C1035.55,174.017 1037.07,173.592 1037.28,173.599C1037.55,173.626 1037.81,173.698 1038.05,173.816L1058.9,184.915C1077.12,188.576 1093.34,201.358 1100.52,219.068C1100.52,219.068 1101.07,220.841 1100.09,221.801C1098.87,222.997 1096.92,222.338 1095.99,220.117C1089.58,204.945 1075.52,193.296 1059.53,189.664L1038.06,201.228C1036.87,201.814 1036.66,201.477 1036.16,201.169C1035.48,200.744 1035.12,200.078 1035.33,199.104L1037.68,189.734C1021.61,193.376 1007.18,204.66 1000.63,220.561L1000.32,221.283C998.426,224.195 996.926,222.304 996.348,221.33C995.279,219.528 997.141,216.883 998.459,214.326C1006.23,199.241 1021.08,188.213 1037.86,184.887Z" style="fill:white;"/>
        </g>
    </g>
</svg>
